HIERARCHY
ROOT Hips
{
  OFFSET 0.0273292 -0.436096 0.279869
  CHANNELS 6 Xposition Yposition Zposition Zrotation Xrotation Yrotation
  JOINT LHipJoint
  {
    OFFSET 0 0 0
    CHANNELS 6 Xposition Yposition Zposition Zrotation Xrotation Yrotation
    JOINT LeftUpLeg
    {
      OFFSET 1.36306 -1.79463 0
      CHANNELS 6 Xposition Yposition Zposition Zrotation Xrotation Yrotation
      JOINT LeftLeg
      {
        OFFSET 2.44807 -6.72613 0.000295034
        CHANNELS 6 Xposition Yposition Zposition Zrotation Xrotation Yrotation
        JOINT LeftFoot
        {
          OFFSET 2.5622 -7.03959 3.59965e-05
          CHANNELS 6 Xposition Yposition Zposition Zrotation Xrotation Yrotation
          JOINT LeftToeBase
          {
            OFFSET 0.15764 -0.43311 2.32255
            CHANNELS 6 Xposition Yposition Zposition Zrotation Xrotation Yrotation
            End Site
            {
              OFFSET 0 0 0
            }
          }
        }
      }
    }
  }
  JOINT RHipJoint
  {
    OFFSET 0 0 0
    CHANNELS 6 Xposition Yposition Zposition Zrotation Xrotation Yrotation
    JOINT RightUpLeg
    {
      OFFSET -1.30552 -1.79463 0
      CHANNELS 6 Xposition Yposition Zposition Zrotation Xrotation Yrotation
      JOINT RightLeg
      {
        OFFSET -2.54234 -6.98562 -0.000396375
        CHANNELS 6 Xposition Yposition Zposition Zrotation Xrotation Yrotation
        JOINT RightFoot
        {
          OFFSET -2.56826 -7.05623 -4.47982e-05
          CHANNELS 6 Xposition Yposition Zposition Zrotation Xrotation Yrotation
          JOINT RightToeBase
          {
            OFFSET -0.16473 -0.45259 2.36315
            CHANNELS 6 Xposition Yposition Zposition Zrotation Xrotation Yrotation
            End Site
            {
              OFFSET 0 0 0
            }
          }
        }
      }
    }
  }
  JOINT LowerBack
  {
    OFFSET 0 0 0
    CHANNELS 6 Xposition Yposition Zposition Zrotation Xrotation Yrotation
    JOINT Spine
    {
      OFFSET 0.0282699 2.03559 0
      CHANNELS 6 Xposition Yposition Zposition Zrotation Xrotation Yrotation
      JOINT Spine1
      {
        OFFSET 0.05672 2.04885 -0.04275
        CHANNELS 6 Xposition Yposition Zposition Zrotation Xrotation Yrotation
        JOINT Neck
        {
          OFFSET 0 0 0
          CHANNELS 6 Xposition Yposition Zposition Zrotation Xrotation Yrotation
          JOINT Neck1
          {
            OFFSET -0.05417 1.74624 0.17202
            CHANNELS 6 Xposition Yposition Zposition Zrotation Xrotation Yrotation
            JOINT Head
            {
              OFFSET 0.10407 1.76136 -0.12397
              CHANNELS 6 Xposition Yposition Zposition Zrotation Xrotation Yrotation
              End Site
              {
                OFFSET 0 0 0
              }
            }
          }
        }
        JOINT LeftShoulder
        {
          OFFSET 0 0 0
          CHANNELS 6 Xposition Yposition Zposition Zrotation Xrotation Yrotation
          JOINT LeftArm
          {
            OFFSET 3.36241 1.20089 -0.311211
            CHANNELS 6 Xposition Yposition Zposition Zrotation Xrotation Yrotation
            JOINT LeftForeArm
            {
              OFFSET 4.983 0.000197398 0.000166057
              CHANNELS 6 Xposition Yposition Zposition Zrotation Xrotation Yrotation
              JOINT LeftHand
              {
                OFFSET 3.48356 0 1.87849e-05
                CHANNELS 6 Xposition Yposition Zposition Zrotation Xrotation Yrotation
                JOINT LeftFingerBase
                {
                  OFFSET 0 0 0
                  CHANNELS 6 Xposition Yposition Zposition Zrotation Xrotation Yrotation
                  JOINT LeftHandIndex1
                  {
                    OFFSET 0.71526 0 0
                    CHANNELS 6 Xposition Yposition Zposition Zrotation Xrotation Yrotation
                    End Site
                    {
                      OFFSET 0 0 0
                    }
                  }
                }
                JOINT LThumb
                {
                  OFFSET 0 0 0
                  CHANNELS 6 Xposition Yposition Zposition Zrotation Xrotation Yrotation
                  End Site
                  {
                    OFFSET 0 0 0
                  }
                }
              }
            }
          }
        }
        JOINT RightShoulder
        {
          OFFSET 0 0 0
          CHANNELS 6 Xposition Yposition Zposition Zrotation Xrotation Yrotation
          JOINT RightArm
          {
            OFFSET -3.1366 1.37405 -0.404651
            CHANNELS 6 Xposition Yposition Zposition Zrotation Xrotation Yrotation
            JOINT RightForeArm
            {
              OFFSET -5.2419 -5.8808e-05 -0.000165864
              CHANNELS 6 Xposition Yposition Zposition Zrotation Xrotation Yrotation
              JOINT RightHand
              {
                OFFSET -3.44417 0 -2.00002e-05
                CHANNELS 6 Xposition Yposition Zposition Zrotation Xrotation Yrotation
                JOINT RightFingerBase
                {
                  OFFSET 0 0 0
                  CHANNELS 6 Xposition Yposition Zposition Zrotation Xrotation Yrotation
                  JOINT RightHandIndex1
                  {
                    OFFSET -0.62253 0 0
                    CHANNELS 6 Xposition Yposition Zposition Zrotation Xrotation Yrotation
                    End Site
                    {
                      OFFSET 0 0 0
                    }
                  }
                }
                JOINT RThumb
                {
                  OFFSET 0 0 0
                  CHANNELS 6 Xposition Yposition Zposition Zrotation Xrotation Yrotation
                  End Site
                  {
                    OFFSET 0 0 0
                  }
                }
              }
            }
          }
        }
      }
    }
  }
}
MOTION
Frames:	6
Frame Time:	0.00833333
-0.0741616 2.09601 -0.0580401 0.788616 -2.32954 2.03168 0 0 0 1.61513e-16 7.95139e-16 -7.95139e-16 1.36306 -1.79463 6.37822e-08 -12.7125 -3.37912 9.78675 2.44809 -6.72614 -2.88661e-05 -0.451054 9.1768 -1.56182 2.5622 -7.03959 -1.87459e-05 -6.62092 -4.71251 -1.7417 0.15764 -0.43311 2.32255 5.46658e-16 0 -1.59028e-15 0 0 0 1.61513e-16 7.95139e-16 -7.95139e-16 -1.30552 -1.79463 -9.59887e-09 17.8604 -12.6078 -8.3013 -2.54244 -6.9856 0.000503903 2.47745 25.8082 -8.45448 -2.56826 -7.05622 4.51957e-05 -0.858882 -14.6998 5.11599 -0.16473 -0.45259 2.36315 -4.32357e-15 -3.97569e-16 -0 0 0 0 1.61513e-16 7.95139e-16 -7.95139e-16 0.02827 2.03559 4.47485e-07 0.674626 3.33886 0.555944 0.05672 2.04885 -0.04275 6.27414e-16 1.98785e-16 3.97569e-16 0 0 0 4.22417e-16 1.98785e-16 7.95139e-16 -0.05417 1.74624 0.17202 0.0765031 1.54598 -0.2781 0.10407 1.76136 -0.12397 -1.61513e-16 -3.97569e-16 -7.95139e-16 0 0 0 4.22417e-16 1.98785e-16 7.95139e-16 3.36241 1.20089 -0.31121 -81.8917 5.67457 -0.902497 4.983 0.000188411 0.000168558 1.00086 0.293338 -10.1401 3.48356 4.97784e-06 -1.0964e-05 0.000100551 1.59028e-15 0.000188127 0 0 0 -2.38542e-15 0 -1.59028e-15 0.71526 0 0 -8.94531e-16 -3.97569e-16 1.59028e-15 0 0 0 -2.38542e-15 0 -1.59028e-15 0 0 0 4.22417e-16 1.98785e-16 7.95139e-16 -3.1366 1.37405 -0.40465 82.6587 23.9958 0.599445 -5.24191 0.000244453 0.00010752 -1.00038 0.285676 9.80351 -3.44417 6.42399e-06 -1.20969e-05 -7.82347e-05 9.54166e-15 -0.000188603 0 0 0 0 3.18055e-15 -0 -0.62253 0 0 0 0 -0 0 0 0 0 3.18055e-15 -0 
-0.0840305 1.57598 -0.0612862 1.18554 2.39695 0.79577 0 0 0 5.59082e-17 -7.95139e-16 -0 1.36306 -1.79463 6.37822e-08 -10.0141 -13.7864 8.39259 2.44809 -6.72614 -2.88661e-05 0.439232 16.4418 2.17424 2.5622 -7.03959 -1.87459e-05 -6.48589 -5.9528 -2.28471 0.15764 -0.43311 2.32255 1.98785e-16 -7.95139e-16 1.59028e-15 0 0 0 5.59082e-17 -7.95139e-16 -0 -1.30552 -1.79463 -9.59887e-09 14.7562 -22.5063 -6.93554 -2.54244 -6.9856 0.000503903 3.51884 33.0915 -10.417 -2.56826 -7.05622 4.51957e-05 -0.607723 -16.0476 5.94836 -0.16473 -0.45259 2.36315 3.03147e-15 3.97569e-16 1.59028e-15 0 0 0 5.59082e-17 -7.95139e-16 -0 0.02827 2.03559 4.47485e-07 -0.301672 4.51544 0.147208 0.05672 2.04885 -0.04275 -4.96962e-17 -7.95139e-16 -1.98785e-16 0 0 0 -4.72114e-16 -1.59028e-15 -3.97569e-16 -0.05417 1.74624 0.17202 -0.362015 1.2469 -0.0261648 0.10407 1.76136 -0.12397 0 0 -1.98785e-16 0 0 0 -4.72114e-16 -1.59028e-15 -3.97569e-16 3.36241 1.20089 -0.31121 -85.2532 0.181589 5.29375 4.983 0.000188411 0.000168558 0.598445 -1.57393 -12.1554 3.48356 4.97784e-06 -1.0964e-05 0.810152 -0.867534 3.61625 0 0 0 -8.44835e-16 0 -0 0.71526 4.44089e-16 1.11022e-16 -4.96962e-17 -3.97569e-16 -0 0 0 0 -8.44835e-16 0 -0 0 0 0 -4.72114e-16 -1.59028e-15 -3.97569e-16 -3.1366 1.37405 -0.40465 84.78 21.0588 -3.93852 -5.24191 0.000244453 0.00010752 -1.4708 0.172498 18.4374 -3.44417 6.42399e-06 -1.20969e-05 -2.99676 -1.45339 -1.25146 0 0 0 0 3.18055e-15 -0 -0.62253 4.44089e-16 0 3.97569e-16 6.36111e-15 -1.59028e-15 0 0 0 0 3.18055e-15 -0 
-0.105742 0.353256 -0.0712508 2.80405 12.7911 -2.06336 0 0 0 8.44835e-16 6.36111e-15 -0 1.36306 -1.79463 6.37822e-08 -5.72144 -37.043 5.49178 2.44809 -6.72614 -2.88661e-05 -1.72131 32.7625 12.5037 2.5622 -7.03959 -1.87459e-05 -6.22602 -8.92638 -3.59081 0.15764 -0.43311 2.32255 2.13694e-15 -3.97569e-16 -0 0 0 0 8.44835e-16 6.36111e-15 -0 -1.30552 -1.79463 -9.59887e-09 9.72925 -44.4227 -3.50135 -2.54244 -6.9856 0.000503903 8.74726 49.6309 -17.368 -2.56826 -7.05622 4.51957e-05 0.0841254 -19.322 8.01459 -0.16473 -0.45259 2.36315 5.2181e-15 0 3.18055e-15 0 0 0 8.44835e-16 6.36111e-15 -0 0.02827 2.03559 4.47485e-07 -2.38853 7.2167 -0.757398 0.05672 2.04885 -0.04275 9.93923e-17 -6.36111e-15 3.97569e-16 0 0 0 -1.98785e-16 -9.54166e-15 7.95139e-16 -0.05417 1.74624 0.17202 -1.31789 0.477072 0.565763 0.10407 1.76136 -0.12397 3.47873e-16 0 3.97569e-16 0 0 0 -1.98785e-16 -9.54166e-15 7.95139e-16 3.36241 1.20089 -0.31121 -88.4896 -11.2506 19.3008 4.983 0.000188411 0.000168558 -0.801413 -5.56552 -16.6554 3.48356 4.97784e-06 -1.0964e-05 2.97516 -2.72508 11.5835 0 0 0 0 0 -9.54166e-15 0.71526 0 0 1.59028e-15 3.18055e-15 -6.36111e-15 0 0 0 0 0 -9.54166e-15 0 0 0 -1.98785e-16 -9.54166e-15 7.95139e-16 -3.1366 1.37405 -0.40465 87.7538 14.3564 -13.3907 -5.24191 0.000244453 0.00010752 -2.47549 -0.0917847 37.4319 -3.44417 6.42399e-06 -1.20969e-05 -9.82733 -4.752 -4.09068 0 0 0 3.03147e-15 -1.59028e-15 -3.97569e-16 -0.62253 0 0 1.59028e-15 0 -0 0 0 0 3.03147e-15 -1.59028e-15 -3.97569e-16 
-0.127454 -1.06611 -0.0882734 5.63397 23.106 -5.48659 0 0 0 1.19271e-15 3.18055e-15 7.95139e-16 1.36306 -1.79463 6.37822e-08 -5.34921 -60.7545 0.214638 2.44809 -6.72614 -2.88661e-05 -14.4116 48.3711 30.9165 2.5622 -7.03959 -1.87459e-05 -6.02033 -12.5099 -5.1815 0.15764 -0.43311 2.32255 1.19271e-15 1.98785e-16 -1.59028e-15 0 0 0 1.19271e-15 3.18055e-15 7.95139e-16 -1.30552 -1.79463 -9.59887e-09 10.4813 -66.2292 4.58582 -2.54244 -6.9856 0.000503903 26.215 66.6256 -36.2976 -2.56826 -7.05622 4.51957e-05 1.08845 -23.3637 10.6793 -0.16473 -0.45259 2.36315 -3.23025e-15 5.96354e-16 1.59028e-15 0 0 0 1.19271e-15 3.18055e-15 7.95139e-16 0.02827 2.03559 4.47485e-07 -4.38041 10.1992 -1.67604 0.05672 2.04885 -0.04275 1.32417e-31 9.54166e-15 -7.95139e-16 0 0 0 0 9.54166e-15 -0 -0.05417 1.74624 0.17202 -2.25405 -0.572064 1.25234 0.10407 1.76136 -0.12397 0 0 -3.97569e-16 0 0 0 0 9.54166e-15 -0 3.36241 1.20089 -0.31121 -86.1017 -20.0422 34.9265 4.983 0.000188411 0.000168558 -2.96557 -9.33461 -21.2938 3.48356 4.97784e-06 -1.0964e-05 5.65025 -4.42356 19.5854 0 0 0 -0 0 6.36111e-15 0.71526 0 -4.44089e-16 -1.59028e-15 3.97569e-15 6.36111e-15 0 0 0 -0 0 6.36111e-15 0 0 0 0 9.54166e-15 -0 -3.1366 1.37405 -0.40465 88.5803 7.74848 -22.4713 -5.24191 0.000244453 0.00010752 -3.49844 -0.310853 56.4276 -3.44417 6.42399e-06 -1.20969e-05 -17.0486 -8.29049 -7.1614 0 0 0 -1.14301e-15 -7.95139e-16 -0 -0.62253 0 0 -9.93923e-16 -1.19271e-15 -7.95139e-16 0 0 0 -1.14301e-15 -7.95139e-16 -0 
-0.137323 -2.17608 -0.112694 7.66259 27.7059 -7.86439 0 0 0 7.95139e-16 -3.18055e-15 -7.95139e-16 1.36306 -1.79463 6.37822e-08 -12.1722 -72.0392 -9.90159 2.44809 -6.72614 -2.88661e-05 -33.6764 55.2607 52.226 2.5622 -7.03959 -1.87459e-05 -5.8554 -15.5946 -6.54471 0.15764 -0.43311 2.32255 5.01931e-15 2.18663e-15 -0 0 0 0 7.95139e-16 -3.18055e-15 -7.95139e-16 -1.30552 -1.79463 -9.59887e-09 21.1207 -75.3974 19.6623 -2.54244 -6.9856 0.000503903 62.2221 74.67 -73.5799 -2.56826 -7.05622 4.51957e-05 1.96771 -27.0693 13.1987 -0.16473 -0.45259 2.36315 -3.18055e-15 7.95139e-16 -1.59028e-15 0 0 0 7.95139e-16 -3.18055e-15 -7.95139e-16 0.02827 2.03559 4.47485e-07 -5.22833 12.2246 -2.10556 0.05672 2.04885 -0.04275 -7.95139e-16 0 -0 0 0 0 -7.95139e-16 -6.36111e-15 -0 -0.05417 1.74624 0.17202 -2.65313 -1.70893 1.78881 0.10407 1.76136 -0.12397 7.95139e-16 3.18055e-15 -0 0 0 0 -7.95139e-16 -6.36111e-15 -0 3.36241 1.20089 -0.31121 -83.3385 -22.5754 42.6534 4.983 0.000188411 0.000168558 -4.46891 -10.9532 -23.4615 3.48356 4.97784e-06 -1.0964e-05 7.02566 -5.11445 23.2382 0 0 0 1.59028e-15 -8.74653e-15 7.95139e-16 0.71526 0 -6.66134e-16 1.57245e-31 -5.66536e-15 1.59028e-15 0 0 0 1.59028e-15 -8.74653e-15 7.95139e-16 0 0 0 -7.95139e-16 -6.36111e-15 -0 -3.1366 1.37405 -0.40465 88.2997 4.90707 -26.5829 -5.24191 0.000244453 0.00010752 -4.28153 -0.471204 65.0644 -3.44417 6.42399e-06 -1.20969e-05 -20.64 -10.5201 -9.04244 0 0 0 -1.98785e-16 0 -0 -0.62253 4.44089e-16 2.22045e-16 0 0 -0 0 0 0 -1.98785e-16 0 -0 
-0.0988181 -2.93424 -0.141199 7.80841 27.151 -8.60927 0 0 0 -7.95139e-16 -6.36111e-15 -7.95139e-16 1.36306 -1.79463 6.37822e-08 -16.0982 -72.7146 -16.0815 2.44809 -6.72614 -2.88661e-05 -47.1894 56.7147 65.8401 2.5622 -7.03959 -1.87459e-05 -5.50778 -18.387 -7.69537 0.15764 -0.43311 2.32255 -2.78299e-15 -7.95139e-16 -1.59028e-15 0 0 0 -7.95139e-16 -6.36111e-15 -7.95139e-16 -1.30552 -1.79463 -9.59887e-09 23.8041 -74.8601 24.5415 -2.54244 -6.9856 0.000503903 91.4307 75.3197 -105.13 -2.56826 -7.05622 4.51957e-05 2.66764 -30.9557 15.7908 -0.16473 -0.45259 2.36315 9.93923e-16 0 1.59028e-15 0 0 0 -7.95139e-16 -6.36111e-15 -7.95139e-16 0.02827 2.03559 4.47485e-07 -4.78279 13.1022 -1.8867 0.05672 2.04885 -0.04275 7.95139e-16 6.36111e-15 7.95139e-16 0 0 0 -7.95139e-16 9.54166e-15 7.95139e-16 -0.05417 1.74624 0.17202 -2.59518 -3.2252 2.09294 0.10407 1.76136 -0.12397 -1.19271e-15 9.54166e-15 -1.59028e-15 0 0 0 -7.95139e-16 9.54166e-15 7.95139e-16 3.36241 1.20089 -0.31121 -81.9795 -23.914 37.2232 4.983 0.000188411 0.000168558 -4.63208 -10.2169 -19.7726 3.48356 4.97784e-06 -1.0964e-05 5.33578 -5.14977 22.0794 0 0 0 3.18055e-15 4.37326e-15 4.77083e-15 0.71526 4.44089e-16 0 -4.41391e-32 3.97569e-16 6.36111e-15 0 0 0 3.18055e-15 4.37326e-15 4.77083e-15 0 0 0 -7.95139e-16 9.54166e-15 7.95139e-16 -3.1366 1.37405 -0.40465 87.9061 5.14429 -22.6891 -5.24191 0.000244453 0.00010752 -5.00287 -0.635325 65.046 -3.44417 6.42399e-06 -1.20969e-05 -14.6822 -11.3599 -9.50656 0 0 0 4.77083e-15 0 -1.59028e-15 -0.62253 0 -2.22045e-16 1.59028e-15 0 -1.59028e-15 0 0 0 4.77083e-15 0 -1.59028e-15 
